<?xml version="1.0" encoding="utf-8"?>
<!-- Generator: Adobe Illustrator 19.2.0, SVG Export Plug-In . SVG Version: 6.00 Build 0)  -->
<svg version="1.1" id="Layer_1" xmlns="http://www.w3.org/2000/svg" xmlns:xlink="http://www.w3.org/1999/xlink" x="0px" y="0px"
	 width="33.6px" height="460.6px" viewBox="0 0 33.6 460.6" enable-background="new 0 0 33.6 460.6" xml:space="preserve">
<g id="F91.1-2">
	<rect id="rect5564_3_" x="28.9" y="447" fill="#F7F8F8" width="0.6" height="0.6"/>
	<rect id="rect5562_3_" x="4" y="447.1" display="none" fill="#F7F8F8" width="0.6" height="0.6"/>
	<path id="path5468_3_"  fill="#F7F8F8" d="M5.8,453.1c0-0.1-0.1-0.3-0.1-0.3v0h2.2h2.2l0,0.1
		c0,0.2,0,0.2,0,0.3l0,0.1l-2.1,0L5.8,453.1L5.8,453.1L5.8,453.1L5.8,453.1z"/>
	<path id="path5470_3_"  fill="#F7F8F8" d="M10.7,453.1c0-0.1-0.1-0.3-0.1-0.3c0,0,0.9,0,2.3,0h2.3
		l0,0c0,0.1-0.1,0.2-0.1,0.3l0,0.1l-2.1,0L10.7,453.1L10.7,453.1L10.7,453.1z"/>
	<path id="path5472_3_"  fill="#F7F8F8" d="M15.5,453.2c0,0,0-0.1,0-0.1c0-0.1,0.1-0.2,0.1-0.3l0,0
		h1.1c1.1,0,1.1,0,1.1,0c0,0,0,0.1,0,0.1c0,0,0,0.1,0.1,0.2c0,0.1,0,0.2,0,0.2c0,0-0.6,0-1.3,0C16.1,453.3,15.5,453.2,15.5,453.2
		L15.5,453.2z"/>
	<path id="path5474_3_"  fill="#F7F8F8" d="M18.5,453.1c0-0.1-0.1-0.3-0.1-0.3c0,0,0.9,0,2.3,0
		c1.7,0,2.3,0,2.3,0c0,0-0.1,0.2-0.1,0.3l0,0.1l-2.1,0L18.5,453.1L18.5,453.1L18.5,453.1z"/>
	<path id="path5476_3_"  fill="#F7F8F8" d="M23.5,453.1c0-0.1,sodipodi-0.1,0-0.2c0-0.1,0-0.1,0-0.1
		c0,0,1,0,2.2,0h2.2l0,0c0,0.1-0.1,0.2-0.1,0.3l0,0.1h-2.1L23.5,453.1L23.5,453.1L23.5,453.1z"/>
	<path id="path4674_3_"  fill="#F7F8F8" d="M5.5,452.2c-0.2-0.2-0.3-0.7-0.5-1.3l0-0.2h11.8
		c9.4,0,11.8,0,11.8,0.1c0,0.2-0.2,0.7-0.3,1.1l-0.2,0.4H16.8C6.2,452.3,5.5,452.3,5.5,452.2L5.5,452.2z"/>
	<rect id="rect4156-4-2_3_" x="4.7" y="94" fill="#FFFFFF" width="24.2" height="356.5"/>
	<g id="g8647_3_">
		<g id="g6174-1-5_3_" transform="translate(169.14562,-68.233508)">
			<g id="g5354-6-9_3_">
				
					<linearGradient id="path5350-3-7_1_" gradientUnits="userSpaceOnUse" x1="-342.6257" y1="1188.3413" x2="-324.3453" y2="1188.3413" gradientTransform="matrix(1 0 0 -1 169.1456 1298.8455)">
					<stop  offset="0" style="stop-color:#E6E6E5"/>
					<stop  offset="1" style="stop-color:#F9F9FA"/>
				</linearGradient>
				<path id="path5350-3-7_3_"  fill="url(#path5350-3-7_1_)" d="M-168.9,150.3
					c-0.1-1.4-0.1-13.3-0.1-26.6c0.1-26.3,0.1-26,1.5-32.7c1.6-7.7,4.6-13.7,9.6-19.4c2-2.2,3.6-3.4,4.8-3.4l0.5,0v42.3v42.3h-8.1
					h-8.1L-168.9,150.3L-168.9,150.3z"/>
				
					<linearGradient id="path5352-8-0_1_" gradientUnits="userSpaceOnUse" x1="-342.6257" y1="1141.2804" x2="-324.3453" y2="1141.2804" gradientTransform="matrix(1 0 0 -1 169.1456 1298.8455)">
					<stop  offset="0" style="stop-color:#E6E6E5"/>
					<stop  offset="1" style="stop-color:#F9F9FA"/>
				</linearGradient>
				<path id="path5352-8-0_3_"  fill="url(#path5352-8-0_1_)" d="M-164.4,161.6
					c-0.1-0.2-1-1.8-1.9-3.5s-1.9-3.6-2.1-4l-0.4-0.8h8.1h8.1v4.3v4.3h-5.8C-162.7,161.9-164.2,161.8-164.4,161.6L-164.4,161.6z"/>
			</g>
			<g id="g5354-8-7-2_3_" transform="matrix(-1,0,0,1,473.68836,0)">
				
					<linearGradient id="path5350-0-6-6_1_" gradientUnits="userSpaceOnUse" x1="-310.4817" y1="1188.3413" x2="-287.8437" y2="1188.3413" gradientTransform="matrix(-1 0 0 -1 293.2583 1298.8455)">
					<stop  offset="0" style="stop-color:#E6E6E5"/>
					<stop  offset="1" style="stop-color:#F9F9FA"/>
				</linearGradient>
				<path id="path5350-0-6-6_3_"  fill="url(#path5350-0-6-6_1_)" d="M609.4,150.3
					c-0.1-1.4-0.1-13.3-0.1-26.6c0.1-26.3,0.1-26,1.5-32.7c1.6-7.7,4.6-13.7,9.6-19.4c2-2.2,3.6-3.4,4.8-3.4l0.5,0v42.3v42.3h-8.1
					h-8.1L609.4,150.3L609.4,150.3z"/>
				
					<linearGradient id="path5352-6-1-1_1_" gradientUnits="userSpaceOnUse" x1="-310.4817" y1="1141.2804" x2="-287.8437" y2="1141.2804" gradientTransform="matrix(-1 0 0 -1 293.2583 1298.8455)">
					<stop  offset="0" style="stop-color:#E6E6E5"/>
					<stop  offset="1" style="stop-color:#F9F9FA"/>
				</linearGradient>
				<path id="path5352-6-1-1_3_"  fill="url(#path5352-6-1-1_1_)" d="M614,161.6
					c-0.1-0.2-1-1.8-1.9-3.5c-0.9-1.8-1.9-3.6-2.1-4l-0.4-0.8h8.1h8.1v4.3v4.3H620C615.6,161.9,614.1,161.8,614,161.6L614,161.6z"/>
			</g>
		</g>
		<g id="g4369-2-7_3_" transform="translate(0.072429,0.01263683)">
			<g id="rect3545-2-6_6_" opacity="3.365383e-02" enable-background="new    ">
				
					<linearGradient id="SVGID_1_" gradientUnits="userSpaceOnUse" x1="-524.6995" y1="958.2855" x2="-513.3737" y2="958.2855" gradientTransform="matrix(0.5132 0 0 -1.001 278.2036 1231.4312)">
					<stop  offset="0" style="stop-color:#010101"/>
					<stop  offset="1" style="stop-color:#010101;stop-opacity:0"/>
				</linearGradient>
				<rect x="4.9" y="94.1" fill="url(#SVGID_1_)" width="12" height="356.2"/>
				<g opacity="0">
					<path fill="#FFFFFF" d="M16.9,450.5h-12c-0.1,0-0.3-0.1-0.3-0.3V94.1c0-0.1,0.1-0.3,0.3-0.3h12c0.1,0,0.3,0.1,0.3,0.3v356.2
						C17.1,450.4,17,450.5,16.9,450.5z M5.1,450h11.5V94.3H5.1V450z"/>
				</g>
			</g>
			<g id="rect3545-9-1-2_6_" opacity="3.365383e-02" enable-background="new    ">
				
					<linearGradient id="SVGID_2_" gradientUnits="userSpaceOnUse" x1="1689.4821" y1="958.3798" x2="1700.8079" y2="958.3798" gradientTransform="matrix(-0.5057 0 0 -1.0007 878.8266 1231.0859)">
					<stop  offset="0" style="stop-color:#010101"/>
					<stop  offset="1" style="stop-color:#010101;stop-opacity:0"/>
				</linearGradient>
				<rect x="16.7" y="94" fill="url(#SVGID_2_)" width="11.8" height="356.1"/>
				<g opacity="0">
					<path fill="#FFFFFF" d="M28.5,450.3H16.7c-0.1,0-0.3-0.1-0.3-0.3V94c0-0.1,0.1-0.3,0.3-0.3h11.8c0.1,0,0.3,0.1,0.3,0.3v356.1
						C28.8,450.2,28.6,450.3,28.5,450.3z M16.9,449.8h11.3V94.3H16.9V449.8z"/>
				</g>
			</g>
		</g>
		<g id="path943-5_3_">
			<path  fill="#F3F3F3" d="M5.9,429.9l0.1-0.2l0.1-0.2l0.1-0.2l0.2-0.2l0.2-0.2l0.2-0.2l0.3-0.2
				l0.3-0.1l0.3-0.1l0.3,0l0.3,0.1l0.3,0.2l0.5,1.4l0.5,1.6l0.5,1.6l0.5,1.6l0.5,1.6l0.5,1.6l0.5,1.6l0.5,1.6l0.5,1.6l0.5,1.6
				l0.5,1.6l0.5,1.6l0.1,0.4l0,0l0,0l0,0l0,0l0,0l0,0l0,0l0,0l0,0l0,0l0,0l0,0l0,0l0,0h0h0h0l0,0h0h0h0h0h0h0.1l0.1,0l0.1-0.1
				l0.1-0.1l0.1-0.1l0.1-0.2l0.1-0.2l0.1-0.2l0-0.2l0-0.2l0-0.2l0-0.2l-0.3-2.5l-0.6-5.2l-0.6-5.2l-0.6-5.2l-0.6-5.2l-0.6-5.2
				L13,413l-0.6-5.2l-0.6-5.2l-0.6-5.2l-0.6-5.2l-0.6-5.2l-0.4-3.5l0-0.3l0-0.3l0-0.3l0-0.3l0-0.3l0-0.3l0-0.3l0-0.3l0-0.3l0-0.3
				l0-0.3l0-0.4l0-0.7l0-0.6l0-0.5l0-0.5l-0.1-0.4l-0.1-0.4L9.3,376l-0.1-0.3l-0.1-0.3l-0.1-0.3l-0.1-0.2L9,374.7L9,374.5l-0.1-0.2
				l-0.1-0.2L8.8,374l-0.1-0.1l-0.1-0.1l-0.1-0.1l-0.1-0.1l-0.1-0.1l-0.1-0.1l-0.1-0.1l-0.1-0.1l-0.1-0.1l-0.1,0l-0.1,0l-0.1,0
				l-0.1,0l-0.1,0l-0.1,0l-0.1,0l-0.1,0l-0.1,0l-0.1,0l-0.1,0l-0.1,0l-0.1,0.1l-0.1,0.1L7,373.4L7,373.5l-0.1,0.1l-0.1,0.1l-0.1,0.1
				l-0.1,0.1l-0.1,0.1l-0.1,0.1l-0.1,0.2l-0.1,0.2l-0.1,0.2L6,374.9l-0.1,0.2l-0.1,0.2l-0.1,0.2l-0.1,0.2L5.6,376l-0.1,0.2l-0.1,0.2
				l-0.1,0.2L5.2,377l-0.1,0.2L5,377.4L5,377.6l-0.1,0.2l-0.1,0.2l-0.1,0.2l-0.1,0.2l0,0.2l0,0.2l0,0.2"/>
			<polygon fill="#5B717C" points="16.2,448.5 15.9,448.5 15.8,448.2 15.8,448.5 15.6,448.4 15.2,448.2 15,447.9 8.3,428.8 
				8.1,428.7 7.9,428.7 7.6,428.7 7.4,428.7 7.1,428.8 6.9,429 6.5,429.3 6.2,429.7 6.1,430 5.6,429.9 5.7,429.7 5.8,429.4 6,429.2 
				6.1,428.9 6.4,428.7 6.6,428.5 6.9,428.3 7.2,428.2 7.6,428.1 7.9,428.1 8.3,428.2 8.7,428.4 15.5,447.7 15.3,447.9 15.5,447.8 
				15.4,448 15.6,447.8 15.5,448.1 15.7,447.9 15.7,448.2 15.7,447.9 16,447.9 16.1,447.9 16.3,447.5 16.5,446.5 16.2,444.1 
				9.4,383.7 9.4,379.5 9,375.8 8.6,374.1 8,373.4 7.7,373.3 7.4,373.5 7,373.9 6.5,374.7 5.4,377.1 4.9,378.8 4.8,379.3 4.3,379.2 
				4.7,377.6 5.8,374.8 6.6,373.5 7.1,373 7.5,372.8 7.7,372.8 8.1,372.9 8.5,373.1 8.8,373.5 9.2,374.3 9.5,375.4 9.7,376.7 
				9.9,379.5 10,383.7 17,446.5 16.8,447.6 16.6,448.1 16.3,448.4 			"/>
		</g>
		<g id="path945-3_3_">
			<path  fill="#F3F3F3" d="M5.9,429.9l0,0.3l0,0.3l0,0.3l0,0.3l0,0.3l0,0.3l0,0.3l0,0.3l0,0.3
				l0,0.3l0,0.3l0,0.3l0,0.3l0,0.4l0,0.4l0,0.4l0,0.4l0,0.4l0,0.4l0,0.4l0,0.4l0,0.4l-0.1,0.8l-0.1,0.8l-0.1,0.8l-0.2,1.5L4.4,442
				l-0.1,0.8l-0.1,0.8l-0.1,0.8l0,0.4l0,0.4l0,0.4l0,0.4l0,0.4l0,0.4l0,0.4l0,0.4l0,0.4l0,0.3l0,0.2l0,0l0,0l0,0h0h0l0,0l0,0l0,0
				l0,0l0,0l0,0h0h0h0h0h0l0,0l-0.1-0.1l-0.1-0.1L3.4,448L3.3,448l-0.1-0.1l-0.1-0.1l-0.1-0.1L3,447.8l-0.1-0.1l-0.1-0.1l-0.1-0.1
				l-0.1-0.1l-0.1-0.1l-0.1-0.1l-0.1-0.1l-0.1-0.1l0-0.1l-0.1-0.1L2.3,447l-0.1-0.1l-0.1-0.1l-0.1-0.1L2,446.5L2,446.4l0-0.1l0-0.1
				l0-0.1l0-0.1l0-0.1l0-0.1l0-0.1l0-0.1l0-0.1l0-0.1l0,0l0,0h0l0,0l0,0l0,0l0-0.1l0-0.2l0.3-9.8l0.6-19.5L3.2,396l0.3-9.8l0.1-2.4
				l0-0.6l0,0l0,0l0,0v0l0,0l0,0l0,0l0,0l0,0l0-0.1l0-0.1l0-0.1l0-0.1l0-0.1l0-0.1l0-0.1l0-0.1l0-0.1l0-0.1l0-0.1l0-0.2l0-0.2l0-0.2
				l0-0.2l0-0.2l0-0.2l0-0.2l0-0.2l0.1-0.2l0.1-0.2l0.1-0.2l0.1-0.2l0.1-0.2l0-0.1l0-0.1l0-0.1l0-0.1l0-0.1l0-0.1l0-0.1l0-0.1
				l0.1-0.1l0.1-0.1l0.1-0.1l0.1-0.1l0.1-0.1l0.1-0.1"/>
			<path fill="#5B717C" d="M3.7,448.5l-0.3-0.1l-1.2-1l-0.5-0.8l-0.4-1.5l0-0.3l2-61.8l0.3,0L3.4,383l0.7-3.3l0.8-2
				c0.1-0.1,0.2-0.2,0.3-0.1c0.1,0.1,0.2,0.2,0.1,0.4l-0.8,2.1l-0.7,3.1L3.5,396l-1.6,49.1l0.4,1.4l0.9,1.1l0.3,0.2l2-17.9
				c0-0.1,0.2-0.2,0.3-0.2c0.1,0,0.2,0.2,0.2,0.3l-1,7.4L4,448.3l-0.1,0l-0.1,0.1L3.7,448.5z M3.8,448.2L3.8,448.2L3.8,448.2
				L3.8,448.2z"/>
		</g>
		<g id="path965-4_3_">
			<path  fill="#F3F3F3" d="M27.7,429.9l-0.1-0.2l-0.1-0.2l-0.1-0.2l-0.2-0.2l-0.2-0.2l-0.2-0.2
				l-0.3-0.2l-0.3-0.1l-0.3-0.1l-0.3,0l-0.3,0.1l-0.3,0.2l-0.5,1.4l-0.5,1.6l-0.5,1.6l-0.5,1.6l-0.5,1.6l-0.5,1.6l-0.5,1.6l-0.5,1.6
				l-0.5,1.6l-0.5,1.6l-0.5,1.6l-0.5,1.6l-0.1,0.4l0,0l0,0l0,0l0,0l0,0l0,0l0,0l0,0l0,0l0,0l0,0l0,0l0,0l0,0h0h0h0l0,0h0h0h0h0h0
				h-0.1l-0.1,0l-0.1-0.1l-0.1-0.1l-0.1-0.1l-0.1-0.2l-0.1-0.2l-0.1-0.2l0-0.2l0-0.2l0-0.2l0-0.2l0.3-2.5l0.6-5.2l0.6-5.2l0.6-5.2
				l0.6-5.2l0.6-5.2l0.6-5.2l0.6-5.2l0.6-5.2l0.6-5.2l0.6-5.2l0.6-5.2l0.4-3.5l0-0.3l0-0.3l0-0.3l0-0.3l0-0.3l0-0.3l0-0.3l0-0.3
				l0-0.3l0-0.3l0-0.3l0-0.4l0-0.7l0-0.6l0-0.5l0-0.5l0.1-0.4l0.1-0.4l0.1-0.4l0.1-0.3l0.1-0.3l0.1-0.3l0.1-0.2l0.1-0.2l0.1-0.2
				l0.1-0.2l0.1-0.2l0.1-0.2l0.1-0.1l0.1-0.1l0.1-0.1l0.1-0.1l0.1-0.1l0.1-0.1l0.1-0.1l0.1-0.1l0.1-0.1l0.1,0l0.1,0l0.1,0l0.1,0
				l0.1,0l0.1,0l0.1,0l0.1,0l0.1,0l0.1,0l0.1,0l0.1,0l0.1,0.1l0.1,0.1l0.1,0.1l0.1,0.1l0.1,0.1l0.1,0.1l0.1,0.1l0.1,0.1l0.1,0.1
				l0.1,0.1l0.1,0.2l0.1,0.2l0.1,0.2l0.1,0.2l0.1,0.2l0.1,0.2l0.1,0.2l0.1,0.2L28,376l0.1,0.2l0.1,0.2l0.1,0.2l0.1,0.2l0.1,0.2
				l0.1,0.2l0.1,0.2l0.1,0.2l0.1,0.2l0.1,0.2l0.1,0.2l0.1,0.2l0,0.2l0,0.2"/>
			<polygon fill="#5B717C" points="17.7,448.5 17.2,448.4 17,448.2 16.8,447.6 16.6,446.5 16.8,444 23.6,383.6 23.7,379.5 24,376 
				24.4,374.3 24.8,373.4 25.2,373 25.6,372.8 25.8,372.8 26.2,372.9 26.6,373.1 27.1,373.6 27.7,374.6 28.8,377.3 29.2,378.9 
				29.3,379.2 28.7,379.3 28.4,377.7 27.2,374.9 26.4,373.6 25.8,373.3 25.5,373.4 25.2,373.7 25,374.3 24.7,375.2 24.5,376.4 
				24.2,378.9 24.1,383.7 17.1,446.5 17.4,447.6 17.5,447.9 17.6,447.9 17.7,448.2 17.7,447.9 17.8,447.9 17.9,448.2 17.8,447.9 
				18,448.1 17.9,447.9 18.2,448 18,447.8 18.2,448 18.1,447.8 18.2,447.3 24.8,428.4 25.2,428.2 25.6,428.1 26,428.1 26.3,428.2 
				26.6,428.3 26.9,428.5 27.2,428.7 27.6,429.2 27.9,429.6 28,429.9 27.5,430 27.3,429.7 27,429.3 26.6,428.9 26.4,428.8 
				26.2,428.7 25.9,428.7 25.7,428.7 25.4,428.7 25.2,428.8 18.4,448.2 18.1,448.4 			"/>
		</g>
		<g id="path967-0_3_">
			<path  fill="#F3F3F3" d="M27.7,429.9l0,0.3l0,0.3l0,0.3l0,0.3l0,0.3l0,0.3l0,0.3l0,0.3l0,0.3
				l0,0.3l0,0.3l0,0.3l0,0.3l0,0.4l0,0.4l0,0.4l0,0.4l0,0.4l0,0.4l0,0.4l0,0.4l0,0.4l0.1,0.8l0.1,0.8l0.1,0.8l0.2,1.5l0.1,0.8
				l0.1,0.8l0.1,0.8l0.1,0.8l0,0.4l0,0.4l0,0.4l0,0.4l0,0.4l0,0.4l0,0.4l0,0.4l0,0.4l0,0.3l0,0.2l0,0l0,0l0,0h0h0l0,0l0,0l0,0l0,0
				l0,0l0,0h0h0h0h0h0l0,0l0.1-0.1l0.1-0.1l0.1-0.1l0.1-0.1l0.1-0.1l0.1-0.1l0.1-0.1l0.1-0.1l0.1-0.1l0.1-0.1l0.1-0.1l0.1-0.1
				l0.1-0.1l0.1-0.1l0.1-0.1l0.1-0.1l0-0.1l0.1-0.1l0.1-0.1l0.1-0.1l0.1-0.1l0.1-0.1l0.1-0.1l0.1-0.1l0-0.1l0-0.1l0-0.1l0-0.1l0-0.1
				l0-0.1l0-0.1l0-0.1l0-0.1l0-0.1l0,0l0,0h0l0,0l0,0l0,0l0-0.1l0-0.2l-0.3-9.8L31,415.6L30.4,396l-0.3-9.8l-0.1-2.4l0-0.6l0,0l0,0
				l0,0v0l0,0l0,0l0,0l0,0l0,0l0-0.1l0-0.1l0-0.1l0-0.1l0-0.1l0-0.1l0-0.1l0-0.1l0-0.1l0-0.1l0-0.1l0-0.2l0-0.2l0-0.2l0-0.2l0-0.2
				l0-0.2l0-0.2l0-0.2l-0.1-0.2l-0.1-0.2l-0.1-0.2l-0.1-0.2l-0.1-0.2l0-0.1l0-0.1l0-0.1l0-0.1l0-0.1l0-0.1l0-0.1l0-0.1l-0.1-0.1
				l-0.1-0.1l-0.1-0.1l-0.1-0.1l-0.1-0.1l-0.1-0.1"/>
			<path fill="#5B717C" d="M30,448.5h-0.3l-0.1-0.1h-0.1l0-0.2l0.2-0.1l-0.3,0L27.5,430c0-0.1,0.1-0.3,0.2-0.3
				c0.1,0,0.3,0.1,0.3,0.2l1,7.5l1.1,10.5l0.9-0.8l0.5-0.8l0.3-1.1l0.3,0l-0.1,0l-0.2,0L29.5,382l-1.2-3.8l-0.1-0.2
				c-0.1-0.1,0-0.3,0.1-0.4c0.1-0.1,0.3,0,0.3,0.1l0.8,2l0.7,3.3l-0.3,0.1l0.3,0l2,61.9l-0.3,1.1l-0.4,0.8l-1,1.1L30,448.5z"/>
		</g>
		<g id="g4999-7_3_" transform="translate(-48.502387,-0.00478157)">
			<g id="g4931-5_3_">
				<g id="path4911-8-5_3_">
					<path  fill="#8395A3" d="M58.8,456.9c-0.2-0.6-0.6-1.4-0.9-2.1l-0.1-0.3l0.1-0.1
						c0.1-0.2,0.3-0.6,0.4-0.8l0-0.1h0.3c0.1,0,0.4,0,0.6,0h0.4l0,0.1c0.1,0.2,0.4,0.7,0.5,0.8l0,0l-0.1,0.1c-0.4,0.7-0.7,1.5-1,2.3
						l0,0.1h0h0L58.8,456.9L58.8,456.9L58.8,456.9z"/>
					<path fill="#5B717C" d="M59.1,457.4h-0.4l-0.1-0.2l-0.1-0.2l0.2-0.1l-0.2,0.1c-0.2-0.6-0.6-1.4-0.9-2l-0.2-0.4l0.1-0.2
						c0.1-0.2,0.3-0.6,0.4-0.8l0.1-0.2l1.5,0l0.1,0.2c0.1,0.2,0.4,0.7,0.5,0.9l0.1,0.1l0,0.2l-0.1,0.1c-0.4,0.7-0.7,1.5-1,2.3
						L59.1,457.4z M58,454.6l0.1,0.1c0.3,0.6,0.6,1.2,0.8,1.8c0.3-0.6,0.6-1.3,0.9-1.9l0,0c-0.1-0.2-0.3-0.5-0.4-0.7l-1,0
						C58.3,454.1,58.1,454.4,58,454.6z"/>
				</g>
				<g id="path4911-3_3_">
					<path  fill="#8395A3" d="M71.5,456.7c-0.2-0.6-0.6-1.4-0.9-2.1l-0.1-0.3l0.1-0.1
						c0.1-0.2,0.3-0.6,0.4-0.8l0-0.1h0.3c0.1,0,0.4,0,0.6,0h0.4l0,0.1c0.1,0.2,0.4,0.7,0.5,0.8l0,0l-0.1,0.1c-0.4,0.7-0.7,1.5-1,2.3
						l0,0.1h0h0L71.5,456.7L71.5,456.7L71.5,456.7z"/>
					<path fill="#5B717C" d="M71.8,457.2h-0.4l-0.1-0.2l-0.1-0.2l0.2-0.1l-0.2,0.1c-0.2-0.6-0.6-1.4-0.9-2l-0.2-0.4l0.1-0.2
						c0.1-0.2,0.3-0.6,0.4-0.8l0.1-0.2l1.5,0l0.1,0.2c0.1,0.2,0.4,0.7,0.5,0.9l0.1,0.1l0,0.2l-0.1,0.1c-0.4,0.7-0.7,1.5-1,2.3
						L71.8,457.2z M70.7,454.4l0.1,0.1c0.3,0.6,0.6,1.2,0.8,1.8c0.3-0.6,0.6-1.3,0.9-1.9l0,0c-0.1-0.2-0.3-0.5-0.4-0.7l-1,0
						C71,453.9,70.8,454.2,70.7,454.4z"/>
				</g>
			</g>
			<g id="path4959-6-18_3_">
				<path  fill="#8395A3" d="M63.9,456c0.1-0.2,0.3-0.6,0.4-0.8l0.2-0.5l-0.3-0.5l-0.3-0.5h-0.5
					c-0.4,0-0.5,0-0.5-0.1c0,0,0-0.1-0.2,0c-0.2,0-0.2,0-0.3,0.1l-0.1,0.1l0.4,0.7c0.2,0.4,0.5,1,0.6,1.3c0.1,0.3,0.2,0.5,0.3,0.5
					C63.7,456.4,63.8,456.2,63.9,456L63.9,456z"/>
				<path fill="#5B717C" d="M63.7,456.6C63.6,456.6,63.6,456.6,63.7,456.6c-0.2,0-0.2-0.1-0.5-0.7c-0.1-0.3-0.4-0.9-0.6-1.3
					l-0.4-0.9l0.1-0.3c0.1-0.2,0.3-0.3,0.5-0.3c0.2,0,0.3,0,0.4,0.1l0,0c0.1,0,0.2,0,0.3,0h0.6l0.7,1.3l-0.3,0.6
					c-0.1,0.2-0.3,0.6-0.4,0.8l0,0C63.9,456.5,63.8,456.6,63.7,456.6z M62.7,453.8l0.3,0.6c0.2,0.4,0.5,1,0.6,1.3c0,0,0,0.1,0,0.1
					c0.1-0.2,0.3-0.5,0.4-0.8l0.2-0.3l-0.4-0.8h-0.3C63.2,453.9,62.9,453.9,62.7,453.8C62.8,453.8,62.8,453.8,62.7,453.8z
					 M63.2,453.5L63.2,453.5C63.2,453.6,63.2,453.6,63.2,453.5z"/>
			</g>
			<g id="path4959-8_3_">
				<path  fill="#8395A3" d="M66.8,455.9c-0.1-0.2-0.3-0.6-0.4-0.8l-0.2-0.5l0.3-0.5l0.3-0.5h0.5
					c0.4,0,0.5,0,0.5-0.1c0,0,0-0.1,0.2,0c0.2,0,0.2,0,0.3,0.1l0.1,0.1l-0.4,0.7c-0.2,0.4-0.5,1-0.6,1.3c-0.1,0.3-0.2,0.5-0.3,0.5
					C67,456.3,66.9,456.2,66.8,455.9L66.8,455.9z"/>
				<path fill="#5B717C" d="M67,456.6c-0.2,0-0.2-0.1-0.4-0.5l0,0c-0.1-0.2-0.3-0.6-0.4-0.8l-0.3-0.6l0.7-1.3h0.6c0.2,0,0.3,0,0.3,0
					c0,0,0,0,0,0c0.1-0.1,0.2-0.1,0.4-0.1c0.2,0,0.4,0,0.5,0.3l0.1,0.3l-0.4,0.9c-0.2,0.4-0.5,1-0.6,1.3
					C67.2,456.5,67.2,456.6,67,456.6C67,456.6,67,456.6,67,456.6z M66.4,454.7l0.2,0.3c0.1,0.2,0.3,0.6,0.4,0.8c0,0,0-0.1,0-0.1
					c0.1-0.3,0.4-0.9,0.6-1.3l0.3-0.6c0,0,0,0-0.1,0c0,0,0,0,0,0c-0.1,0.1-0.4,0.1-0.7,0.1h-0.3L66.4,454.7z"/>
			</g>
			<g id="path4981-8_6_"  >
				<path fill="#8395A3" d="M62.2,461.7c0,0,0.1-0.5,0.1-0.6c0.2-3,0.5-2.4,1.4-4.3c0-0.1,0.6-1.4,1-2.1l0.2-0.3v-0.4v-0.4h0.4h0.4
					v0.4v0.4l0.2,0.3c0.2,0.4,0.7,1.5,0.9,1.8l0.1,0.2c1.1,3.3,0.3,0.4,1.5,4.6c0,0.1,0.1,0.3,0.1,0.3c0,0,0,0-3.1,0
					C63.6,461.7,62.2,461.7,62.2,461.7L62.2,461.7z"/>
				<g opacity="0">
					<path fill="#FFFFFF" d="M65.3,462c-3.3,0-3.3,0-3.3-0.3l0,0c0-0.1,0.1-0.6,0.1-0.6c0.2-2.2,0.3-2.5,0.8-3.3
						c0.2-0.3,0.4-0.6,0.6-1.1c0.2-0.5,0.9-1.9,1-2.1l0.1-0.3v-0.8c0-0.1,0.1-0.3,0.3-0.3h0.9c0.1,0,0.3,0.1,0.3,0.3v0.8l0.2,0.3
						c0.2,0.4,0.7,1.5,0.9,1.8l0.1,0.2c0.4,1.2,0.6,1.6,0.6,1.8c0.1,0.2,0.1,0.3,0.3,0.9c0.1,0.4,0.3,1,0.5,1.9
						c0,0.2,0.1,0.3,0.1,0.4C68.7,462,68.7,462,65.3,462z M62.5,461.8C62.5,461.8,62.5,461.8,62.5,461.8
						C62.5,461.8,62.5,461.8,62.5,461.8z M62.6,461.5c0.5,0,1.6,0,2.8,0c1.6,0,2.4,0,2.8,0c0,0,0,0,0,0c-0.3-1-0.4-1.6-0.5-1.9
						c-0.2-0.7-0.2-0.7-0.3-0.9c-0.1-0.2-0.2-0.6-0.6-1.8l-0.1-0.2c-0.1-0.3-0.7-1.4-0.8-1.7l-0.2-0.3c0,0,0-0.1,0-0.1v-0.6h-0.4
						v0.6c0,0,0,0.1,0,0.1l-0.2,0.3c-0.3,0.6-0.9,1.8-0.9,2c0,0,0,0,0,0.1c-0.3,0.5-0.5,0.8-0.6,1.1c-0.4,0.7-0.6,0.9-0.7,3.1
						C62.6,461.2,62.6,461.3,62.6,461.5z"/>
				</g>
			</g>
		</g>
		<g id="path519-0_3_">
			<rect x="4.7" y="93.5" fill="#5B717C" width="24.1" height="0.5"/>
		</g>
		<g id="path521-1_3_">
			<rect x="4.7" y="450.2" fill="#5B717C" width="24.1" height="0.5"/>
		</g>
		<g id="path523-7_3_">
			<rect x="4.7" y="193.3" fill="#5B717C" width="24.1" height="0.5"/>
		</g>
		<g id="path525-5_3_">
			<rect x="4.7" y="150.3" fill="#5B717C" width="24.1" height="0.5"/>
		</g>
		<g id="path527-0_3_">
			<rect x="0" y="84.5" fill="#5B717C" width="33.6" height="0.5"/>
		</g>
		<g id="path529-5_3_">
			<polygon fill="#5B717C" points="4.5,93.9 -0.1,85.1 -0.3,81.2 -0.3,37.5 -0.2,33.5 0.4,27 1,23.4 1.6,20.5 2.2,18.4 2.9,16.4 
				3.6,14.3 4.5,12.4 5.5,10.5 6.6,8.7 7.8,6.9 9.1,5.1 11,2.9 12,1.8 12.6,1.2 13.1,0.8 13.7,0.4 14.3,0 15,-0.2 15.7,-0.4 
				16.4,-0.5 17.2,-0.5 17.9,-0.4 18.6,-0.3 19.3,0 19.9,0.4 20.5,0.8 21.1,1.2 21.6,1.7 22.6,2.8 24.5,5.1 25.8,6.9 27,8.7 
				28.1,10.5 29.1,12.4 30,14.3 30.8,16.3 31.4,18.4 32,20.5 32.6,23.4 33.1,26.3 33.6,30.6 33.8,33.5 33.8,81.2 33.6,85.2 
				29.1,93.9 28.6,93.7 33.1,85 33.3,81.2 33.3,33.5 32.7,27 32.2,24.2 31.7,21.4 31.1,19.3 30.5,17.2 29.8,15.2 28.9,13.3 28,11.4 
				27,9.6 25.8,7.8 24.6,6 22.7,3.8 21.8,2.7 21.2,2.1 20.7,1.6 20.2,1.2 19.6,0.8 19.1,0.5 18.5,0.3 17.8,0.1 17.2,0 16.5,0 
				15.8,0.1 15.1,0.3 14.5,0.5 14,0.8 13.4,1.2 12.9,1.7 12.4,2.1 11.4,3.2 9.5,5.5 8.2,7.2 7,9 6,10.8 5,12.6 4.1,14.6 3.4,16.5 
				2.7,18.6 2,21.4 1.4,24.2 0.9,27.8 0.3,33.5 0.3,81.2 0.4,85 4.9,93.7 			"/>
		</g>
		<g id="path531-9_3_">
			<rect x="20" y="453.1" fill="#5B717C" width="1.3" height="0.5"/>
		</g>
		<g id="path533-0_3_">
			<rect x="7.2" y="460.3" fill="#5B717C" width="6.4" height="0.5"/>
		</g>
		<g id="path535-9_3_">
			<rect x="9.8" y="453.1" fill="#5B717C" width="1.3" height="0.5"/>
		</g>
		<g id="path537-3_3_">
			<path fill="#5B717C" d="M11.4,454.7c-0.2-0.4-0.4-0.7-0.6-1.1l0.5-0.3c0.2,0.4,0.4,0.8,0.6,1.1L11.4,454.7z"/>
		</g>
		<g id="path539-5_3_">
			<path fill="#5B717C" d="M9.4,454.7L9,454.4c0.2-0.4,0.4-0.8,0.6-1.1l0.5,0.3C9.8,453.9,9.6,454.3,9.4,454.7z"/>
		</g>
		<g id="path541-4_3_">
			<rect x="14.1" y="453.1" fill="#5B717C" width="1" height="0.5"/>
		</g>
		<g id="path543-2_3_">
			<path fill="#5B717C" d="M15.9,454.8c-0.2-0.4-0.4-0.8-0.6-1.1l0.5-0.3c0.2,0.4,0.4,0.8,0.6,1.2L15.9,454.8z"/>
		</g>
		<g id="path545-7_3_">
			<path fill="#5B717C" d="M14.1,454.1l-0.5-0.3c0.1-0.2,0.2-0.4,0.3-0.6l0.5,0.3C14.3,453.7,14.2,453.9,14.1,454.1z"/>
		</g>
		<g id="path547-2_3_">
			<rect x="20" y="460.3" fill="#5B717C" width="6.4" height="0.5"/>
		</g>
		<g id="path549-6_3_">
			<rect x="22.5" y="453.1" fill="#5B717C" width="1.3" height="0.5"/>
		</g>
		<g id="path551-7_3_">
			<path fill="#5B717C" d="M22.2,454.7l-0.5-0.2c0.2-0.4,0.4-0.8,0.6-1.1l0.5,0.3C22.5,453.9,22.3,454.3,22.2,454.7z"/>
		</g>
		<g id="path553-2_3_">
			<path fill="#5B717C" d="M24.2,454.7c-0.2-0.4-0.4-0.7-0.6-1.1l0.5-0.3c0.2,0.4,0.4,0.8,0.6,1.1L24.2,454.7z"/>
		</g>
		<g id="path555-2_3_">
			<rect x="18.4" y="453.1" fill="#5B717C" width="1" height="0.5"/>
		</g>
		<g id="path559-0_3_">
			<path fill="#5B717C" d="M15.3,453.6l-0.4-0.3c0.2-0.2,0.2-0.5,0.2-0.7l0.5,0C15.7,452.9,15.6,453.3,15.3,453.6z"/>
		</g>
		<g id="path561-1_3_">
			<rect x="10.6" y="453.1" fill="#5B717C" width="4.5" height="0.5"/>
		</g>
		<g id="path563-1_3_">
			<path fill="#5B717C" d="M18.2,453.6c-0.2-0.3-0.4-0.7-0.3-1.1l0.5,0c0,0.3,0.1,0.5,0.2,0.7L18.2,453.6z"/>
		</g>
		<g id="path565-7_3_">
			<path fill="#5B717C" d="M23.2,453.6l-0.4-0.3c0.2-0.2,0.2-0.5,0.2-0.7l0.5,0C23.5,452.9,23.4,453.3,23.2,453.6z"/>
		</g>
		<g id="path569-5_3_">
			<rect x="15.5" y="453.2" fill="#5B717C" width="2.6" height="0.5"/>
		</g>
		<g id="path571-9_3_">
			<path fill="#5B717C" d="M14.3,453.7c0,0-0.1-0.1-0.1-0.1l0.4-0.3c0,0,0,0.1,0.1,0.1L14.3,453.7z"/>
		</g>
		<g id="path573-1_3_">
			<path fill="#5B717C" d="M19.2,453.7l-0.4-0.3c0,0,0-0.1,0.1-0.1l0.4,0.3C19.3,453.6,19.3,453.6,19.2,453.7z"/>
		</g>
		<g id="path575-8_3_">
			<rect x="14.5" y="453.2" fill="#5B717C" width="4.5" height="0.5"/>
		</g>
		<g id="path577-1_3_">
			<path fill="#5B717C" d="M17.8,454.8l-0.5-0.2c0.2-0.4,0.4-0.8,0.6-1.2l0.5,0.3C18.2,454,18,454.4,17.8,454.8z"/>
		</g>
		<g id="path579-7_3_">
			<path fill="#5B717C" d="M17.8,454.8l-0.5-0.2c0.2-0.4,0.4-0.8,0.6-1.2l0.5,0.3C18.2,454,18,454.4,17.8,454.8z"/>
		</g>
		<g id="path581-8_3_">
			<path fill="#5B717C" d="M19.5,454c-0.1-0.2-0.2-0.3-0.3-0.5l0.5-0.3c0.1,0.2,0.2,0.3,0.3,0.5L19.5,454z"/>
		</g>
		<g id="path583-6_3_">
			<rect x="28.6" y="93.8" fill="#5B717C" width="0.5" height="285.1"/>
		</g>
		<g id="path585-6_3_">
			<path fill="#5B717C" d="M20.3,462h-7l0.1-0.3c0.1-0.4,0.1-0.8,0.2-1.1l0.5,0.1c-0.1,0.3-0.1,0.5-0.2,0.8h5.7
				c-0.1-0.3-0.1-0.5-0.2-0.8l0.5-0.1c0.1,0.4,0.2,0.8,0.2,1.1L20.3,462z"/>
		</g>
		<g id="path587-9_3_">
			<path fill="#5B717C" d="M15.3,457l-0.5-0.2c0.3-0.8,0.7-1.5,1.1-2.3v-0.9h0.5v1.1l0,0.1C16,455.4,15.6,456.2,15.3,457z"/>
		</g>
		<g id="path589-9_3_">
			<path fill="#5B717C" d="M18.3,456.9c-0.3-0.8-0.7-1.5-1.1-2.2l0-0.1v-1.1h0.5v0.9c0.4,0.7,0.7,1.4,1,2.2L18.3,456.9z"/>
		</g>
		<g id="path591-2_3_">
			<path  fill="#8395A3" d="M10.4,457.7c-0.5-1.5-1.1-2.9-1.8-4.3H7.3c-1.2,2.2-2.1,4.7-2.5,7.2
				h6.4"/>
			<path fill="#5B717C" d="M11.1,460.9H4.5l0.1-0.3c0.5-2.6,1.3-5,2.6-7.3l0.1-0.1h1.6l0.1,0.1c0.7,1.4,1.4,2.8,1.8,4.3l-0.5,0.2
				c-0.4-1.4-1-2.8-1.7-4.1h-1c-1.1,2.1-1.9,4.3-2.4,6.7h6V460.9z"/>
		</g>
		<g id="path595-6_3_">
			<path fill="#5B717C" d="M28,453.7h-4.8l-0.1-0.1c-0.1-0.1-0.2-0.3-0.2-0.5l0.5-0.2c0,0.1,0.1,0.1,0.1,0.2h4.2
				c0.1-0.2,0.2-0.4,0.2-0.6l0.5,0c0,0.4-0.1,0.8-0.3,1.1L28,453.7z"/>
		</g>
		<g id="path597-6_3_">
			<path  fill="#8395A3" d="M22.4,460.6h6.4c-0.5-2.5-1.3-5-2.5-7.2H25c-0.7,1.4-1.3,2.8-1.8,4.3"
				/>
			<path fill="#5B717C" d="M29.1,460.9h-6.7v-0.5h6c-0.5-2.3-1.2-4.6-2.4-6.7h-1c-0.7,1.3-1.3,2.7-1.7,4.1l-0.5-0.2
				c0.5-1.5,1.1-2.9,1.8-4.3l0.1-0.1h1.6l0.1,0.1c1.2,2.3,2.1,4.7,2.6,7.3L29.1,460.9z"/>
		</g>
		<g id="path601-5_3_">
			<path  fill="#8395A3" d="M12.2,453.4c-1.2,2.2-2.1,4.7-2.5,7.2h6.4c-0.5-2.5-1.3-5-2.5-7.2H12.2
				z"/>
			<path fill="#5B717C" d="M16.4,460.9h-7l0.1-0.3c0.5-2.6,1.3-5,2.6-7.3l0.1-0.1h1.6l0.1,0.1c1.2,2.3,2.1,4.7,2.6,7.3L16.4,460.9z
				 M10,460.3h5.7c-0.5-2.3-1.2-4.6-2.4-6.7h-1C11.3,455.8,10.5,458,10,460.3z"/>
		</g>
		<g id="path855-8_3_">
			<rect x="16.5" y="-0.2" fill="#5B717C" width="0.5" height="94"/>
		</g>
		<g id="path911-4_3_">
			<polygon fill="#5B717C" points="9.5,379.8 7.9,378.1 8.3,377.7 9.9,379.5 			"/>
		</g>
		<g id="path913-0_3_">
			<rect x="5.2" y="377.6" fill="#5B717C" width="2.9" height="0.5"/>
		</g>
		<g id="path915-3_3_">
			
				<rect x="-11.4" y="402.4" transform="matrix(7.606055e-03 -1 1 7.606055e-03 -397.7791 404.5423)" fill="#5B717C" width="32.7" height="0.5"/>
		</g>
		<g id="path917-7_3_">
			<polygon fill="#5B717C" points="5.2,386.5 4.8,386.2 7.6,382.2 8,382.5 			"/>
		</g>
		<g id="path919-8_3_">
			<polygon fill="#5B717C" points="4.8,386.4 3.5,382.8 3.9,382.6 5.3,386.2 			"/>
		</g>
		<g id="path921-3_3_">
			<path fill="#5B717C" d="M7.8,382.6C7.8,382.6,7.8,382.6,7.8,382.6c-0.2,0-0.3-0.1-0.3-0.3l0.2-4.5c0-0.1,0.1-0.3,0.3-0.3
				c0.1,0,0.3,0.1,0.2,0.3l-0.2,4.5C8.1,382.5,8,382.6,7.8,382.6z"/>
		</g>
		<g id="path923-1_3_">
			<rect x="4.5" y="93.8" fill="#5B717C" width="0.5" height="285.1"/>
		</g>
		<g id="path925-1_3_">
			<rect x="3.9" y="446.7" fill="#5B717C" width="0.8" height="0.5"/>
		</g>
		<g id="path927-2_3_">
			<rect x="3.8" y="447.6" fill="#5B717C" width="0.9" height="0.5"/>
		</g>
		<g id="path929-5_3_">
			<path fill="#5B717C" d="M28.4,452.8H5.2l-0.1-0.1c-0.4-0.6-0.6-1.4-0.7-2.2l0-11.3H5v11.3c0,0.6,0.2,1.2,0.5,1.8h22.6
				c0.3-0.5,0.5-1.2,0.5-1.8l0-11.2h0.5v11.3c0,0.8-0.3,1.5-0.7,2.2L28.4,452.8z"/>
		</g>
		<g id="path931-7_3_">
			<rect x="16.4" y="447.6" fill="#5B717C" width="0.8" height="0.5"/>
		</g>
		<g id="path933-6_3_">
			<rect x="16.6" y="446.7" fill="#5B717C" width="0.3" height="0.5"/>
		</g>
		<g id="path947-2_3_">
			<polygon fill="#5B717C" points="15.8,448.3 5.6,419.8 5,419.3 4.9,419.3 4.7,419.4 4.6,419.6 4.5,419.8 4.5,420.4 2.5,446.9 
				2,446.8 4,419.7 4.1,419.3 4.3,419.1 4.5,418.9 4.7,418.8 5,418.7 5.3,418.8 5.8,419.2 6.3,419.8 6.5,420.4 16.3,448.1 			"/>
		</g>
		<g id="path949-1_3_">
			<polygon fill="#5B717C" points="24.1,379.8 23.7,379.5 25.3,377.7 25.7,378.1 			"/>
		</g>
		<g id="path951-6_3_">
			<rect x="25.5" y="377.6" fill="#5B717C" width="2.9" height="0.5"/>
		</g>
		<g id="path953-1_3_">
			
				<rect x="28.4" y="386.3" transform="matrix(1 -6.914626e-03 6.914626e-03 1 -2.7837 0.2077)" fill="#5B717C" width="0.5" height="32.7"/>
		</g>
		<g id="path955-1_3_">
			<polygon fill="#5B717C" points="28.3,386.5 25.5,382.5 25.9,382.2 28.7,386.2 			"/>
		</g>
		<g id="path957-5_3_">
			<polygon fill="#5B717C" points="28.8,386.4 28.3,386.2 29.6,382.6 30.1,382.8 			"/>
		</g>
		<g id="path959-7_3_">
			<path fill="#5B717C" d="M25.7,382.6c-0.1,0-0.3-0.1-0.3-0.3l-0.2-4.5c0-0.1,0.1-0.3,0.2-0.3c0.1,0,0.3,0.1,0.3,0.3l0.2,4.5
				C26,382.5,25.9,382.6,25.7,382.6C25.7,382.6,25.7,382.6,25.7,382.6z"/>
		</g>
		<g id="path961-4_3_">
			<rect x="28.9" y="446.7" fill="#5B717C" width="0.8" height="0.5"/>
		</g>
		<g id="path963-8_3_">
			<rect x="28.9" y="447.6" fill="#5B717C" width="0.9" height="0.5"/>
		</g>
		<g id="path969-5_3_">
			<polygon fill="#5B717C" points="17.7,448.3 17.2,448.1 27.5,419.5 28.1,419 28.5,418.8 28.7,418.7 28.9,418.8 29.2,418.9 
				29.4,419.2 29.5,419.5 29.6,419.7 29.6,420.4 31.6,446.8 31.1,446.9 29,419.7 28.8,419.3 28.7,419.3 28.4,419.4 27.9,419.9 
				27.7,420.1 27.5,420.6 			"/>
		</g>
		<g id="path599-6_3_">
			<path  fill="#8395A3" d="M21.4,453.4c1.2,2.2,2.1,4.7,2.5,7.2h-6.4c0.5-2.5,1.3-5,2.5-7.2"/>
			<path fill="#5B717C" d="M24.2,460.9h-7l0.1-0.3c0.5-2.6,1.3-5,2.6-7.3l0.5,0.3c-1.2,2.1-2,4.4-2.4,6.8h5.7
				c-0.5-2.4-1.3-4.7-2.4-6.8l0.5-0.3c1.2,2.3,2.1,4.7,2.6,7.3L24.2,460.9z"/>
		</g>
		<g id="path567-4_3_">
			<path  fill="#8395A3" d="M18.4,453.4H23"/>
			<rect x="18.4" y="453.1" fill="#5B717C" width="4.5" height="0.5"/>
		</g>
		<g id="path593-9_3_">
			<path fill="#5B717C" d="M10.3,453.7H5.6l-0.1-0.1c-0.2-0.3-0.4-0.7-0.3-1.1l0.5,0c0,0.2,0,0.5,0.2,0.6h4.2c0-0.1,0.1-0.1,0.1-0.2
				l0.5,0.2c-0.1,0.2-0.1,0.3-0.2,0.5L10.3,453.7z"/>
		</g>
		<g id="path557-8_3_">
			<path fill="#5B717C" d="M10.4,453.6c-0.2-0.3-0.4-0.7-0.3-1.1l0.5,0c0,0.3,0.1,0.5,0.2,0.7L10.4,453.6z"/>
		</g>
	</g>
</g>
<g>
</g>
<g>
</g>
<g>
</g>
<g>
</g>
<g>
</g>
<g>
</g>
<g>
</g>
</svg>
